<?xml version="1.0" standalone="no"?><!DOCTYPE svg PUBLIC "-//W3C//DTD SVG 1.1//EN" "http://www.w3.org/Graphics/SVG/1.1/DTD/svg11.dtd"><svg t="1521554443164" class="icon" style="" viewBox="0 0 1024 1024" version="1.1" xmlns="http://www.w3.org/2000/svg" p-id="2693" xmlns:xlink="http://www.w3.org/1999/xlink" width="256" height="256"><defs><style type="text/css"></style></defs><path d="M400.088164 225.892797m-16.673751 0a16.294 16.294 0 1 0 33.347502 0 16.294 16.294 0 1 0-33.347502 0Z" p-id="2694" fill="#d81e06"></path><path d="M570.494229 225.892797m-16.673751 0a16.294 16.294 0 1 0 33.347502 0 16.294 16.294 0 1 0-33.347502 0Z" p-id="2695" fill="#d81e06"></path><path d="M687.46836 304.70477c22.057365-5.492084 38.425148-25.374924 38.425148-49.132001 0-27.994588-22.693862-50.688449-50.688449-50.688449-2.293229 0-4.53427 0.205685-6.746658 0.500397-22.020526-80.616062-95.734388-139.89312-183.334515-139.89312-87.741343 0-161.556513 59.46637-183.445032 140.283-3.019777-0.560772-6.121418-0.890276-9.3039-0.890276-27.994588 0-50.688449 22.693862-50.688449 50.688449 0 27.994588 22.693862 50.688449 50.688449 50.688449 3.182482 0 6.284123-0.329505 9.3039-0.890276 21.88852 80.81663 95.703689 140.283 183.445032 140.283 29.564339 0 57.533344-6.773264 82.480526-18.817578 7.115048 46.301536 10.865465 93.711312 10.865465 142.005224 0 104.131639-17.10661 204.267267-48.65514 297.754474 125.032668-5.67321 229.974765-88.373747 268.527826-201.765283-34.938744 130.950448-154.349367 227.4165-296.310589 227.4165-163.552983 0-297.185516-128.037095-306.174238-289.342898 0.938372-2.171456 1.463328-4.563946 1.463328-7.080256 0-9.872858-8.004301-17.877159-17.877159-17.877159-9.872858 0-17.877159 8.004301-17.877159 17.877159 0 0.792039 0.069585 1.566682 0.168846 2.332115-0.097214 3.247974-0.168846 6.503111-0.168846 9.774621 0 193.505156 156.8667 350.370833 350.370833 350.370833s350.370833-156.8667 350.370833-350.370833C862.311481 478.397694 791.988856 365.334639 687.46836 304.70477zM324.630588 294.674323c-3.041266-11.873422-4.847401-24.241101-5.169743-36.985356-0.071631-1.413186-0.107447-2.835581-0.107447-4.267187l0 0c0-0.140193 0.010233-0.277316 0.010233-0.417509 0.00614-1.289366 0.032746-2.574638 0.097214-3.848655 0.035816-1.418302 0.035816-2.845815 0.107447-4.254907l0.217964 0c0.949628-9.301853 3.446495-18.144242 7.214309-26.276457 13.152555-28.390607 41.891086-48.088228 75.237565-48.088228 42.900066 0 78.18571 32.591279 82.451874 74.364685l0.867764 0c4.266164-41.773406 39.552831-74.364685 82.451874-74.364685 32.68133 0 60.926628 18.925025 74.42199 46.403866 4.220115 8.591679 7.013741 18.011212 8.029884 27.960819l0.217964 0c0.071631 1.409093 0.071631 2.836605 0.107447 4.254907 0.064468 1.27504 0.091074 2.559289 0.097214 3.848655 0 0.140193 0.010233 0.277316 0.010233 0.417509l0 0c0 1.431605-0.036839 2.854001-0.10847 4.267187-0.338714 13.343913-2.285043 26.282596-5.595438 38.664601-18.911722 70.731948-83.371826 122.840746-160.067602 122.840746C407.824359 419.194314 342.966189 366.256638 324.630588 294.674323z" p-id="2696" fill="#d81e06"></path></svg>